<?xml version="1.0" standalone="no"?>
<!DOCTYPE svg PUBLIC "-//W3C//DTD SVG 20010904//EN"
 "http://www.w3.org/TR/2001/REC-SVG-20010904/DTD/svg10.dtd">
<svg version="1.0" xmlns="http://www.w3.org/2000/svg"
 width="700.000000pt" height="700.000000pt" viewBox="0 0 700.000000 700.000000"
 preserveAspectRatio="xMidYMid meet">
<metadata>
Created by potrace 1.11, written by Peter Selinger 2001-2013
</metadata>
<g transform="translate(0.000000,700.000000) scale(0.100000,-0.100000)"
fill="#000000" stroke="none">
<path d="M0 3500 l0 -3500 3500 0 3500 0 0 3500 0 3500 -3500 0 -3500 0 0
-3500z m4028 2569 c53 -26 93 -83 99 -142 7 -61 -870 -4853 -899 -4915 -78
-165 -339 -117 -355 66 -3 33 121 731 426 2397 237 1293 438 2384 446 2425 9
41 26 91 39 111 49 73 158 99 244 58z m-1446 -899 c106 -30 166 -154 123 -258
-11 -26 -225 -246 -703 -725 l-687 -687 687 -688 c479 -479 692 -698 703 -724
48 -118 -24 -247 -148 -264 -96 -13 -67 -40 -908 803 -732 733 -777 781 -788
825 -13 53 -6 100 20 143 10 17 364 375 786 797 782 781 786 784 858 787 11 1
37 -4 57 -9z m1963 -9 c27 -13 282 -262 811 -792 732 -734 772 -776 783 -821
8 -36 8 -60 0 -95 -11 -46 -51 -88 -783 -822 -529 -530 -784 -779 -811 -792
-67 -31 -155 -19 -208 29 -54 48 -74 159 -41 225 9 18 325 341 702 719 l687
688 -691 692 c-747 748 -721 719 -712 819 13 128 146 205 263 150z"/>
</g>
</svg>
